<svg width="96" height="96" viewBox="0 0 96 96" fill="none" xmlns="http://www.w3.org/2000/svg">
  <defs>
    <linearGradient id="giftGold" x1="18" y1="16" x2="78" y2="84" gradientUnits="userSpaceOnUse">
      <stop stop-color="#FFDF86"/>
      <stop offset="0.48" stop-color="#F6C75B"/>
      <stop offset="1" stop-color="#8A5D12"/>
    </linearGradient>
    <linearGradient id="giftGlow" x1="24" y1="24" x2="72" y2="78" gradientUnits="userSpaceOnUse">
      <stop stop-color="#FFF2BD" stop-opacity="0.95"/>
      <stop offset="1" stop-color="#F6C75B" stop-opacity="0"/>
    </linearGradient>
  </defs>
  <rect x="18" y="38" width="60" height="14" rx="4" fill="url(#giftGold)"/>
  <rect x="23" y="52" width="50" height="34" rx="5" fill="url(#giftGold)" fill-opacity="0.9"/>
  <rect x="44" y="38" width="8" height="48" rx="2" fill="#FFF2BD" fill-opacity="0.72"/>
  <path d="M47 37C42.2 28.4 34.5 22.8 29.6 25.7C25.7 28 26.5 33.7 30.7 36.3C35.1 39 41 38.6 47 37Z" stroke="url(#giftGold)" stroke-width="6" stroke-linecap="round" stroke-linejoin="round"/>
  <path d="M49 37C53.8 28.4 61.5 22.8 66.4 25.7C70.3 28 69.5 33.7 65.3 36.3C60.9 39 55 38.6 49 37Z" stroke="url(#giftGold)" stroke-width="6" stroke-linecap="round" stroke-linejoin="round"/>
  <path d="M24 43H76" stroke="url(#giftGlow)" stroke-width="3" stroke-linecap="round"/>
  <path d="M29 58H43" stroke="#FFF2BD" stroke-width="3" stroke-linecap="round" stroke-opacity="0.52"/>
  <path d="M56 58H69" stroke="#FFF2BD" stroke-width="3" stroke-linecap="round" stroke-opacity="0.52"/>
</svg>
